name C:\Users\u0101727\Documents\MyRepositories\predictivesimulations\OpenSimModel\subject1\EMG\EMG_gait_63.mot
datacolumns 25
datarows 19
range 2.60100000 2.61900000
endheader
time	HamL_r	TA_r	PerL_r	GL_r	HamM_r	Sol_r	VL_r	VM_r	PerB_l	TA_l	PerL_l	GL_l	GM_l	Sol_l	VL_l	VM_l	AddL_l	RF_l	TFL_l	GluMed_l	HamL_l	HamM_l	GluMed_r	RF_r	
          2.60100000	          0.00466814	          0.00349707	          0.00419022	          0.00265409	          0.00351071	          0.01477256	          0.00496340	          0.00297493	          0.06546804	          0.01031505	          0.03339468	          0.03118558	          0.06216295	          0.11532242	          0.00363649	          0.01259733	          0.00645782	          0.00464295	          0.01046942	          0.00876540	          0.00692508	          0.00367997	          0.00512660	          0.00465183	
          2.60200000	          0.00464322	          0.00349572	          0.00419291	          0.00264784	          0.00349760	          0.01470448	          0.00496637	          0.00298463	          0.06578664	          0.01035831	          0.03374404	          0.03120726	          0.06245682	          0.11550570	          0.00365567	          0.01225265	          0.00644243	          0.00459288	          0.01052547	          0.00875515	          0.00703098	          0.00367876	          0.00505076	          0.00467804	
          2.60300000	          0.00461932	          0.00349336	          0.00419385	          0.00264476	          0.00348531	          0.01463679	          0.00496984	          0.00299567	          0.06610314	          0.01040053	          0.03406978	          0.03123320	          0.06277362	          0.11564274	          0.00367858	          0.01190717	          0.00642386	          0.00454738	          0.01058659	          0.00874487	          0.00713865	          0.00367801	          0.00498094	          0.00470289	
          2.60400000	          0.00459673	          0.00348995	          0.00419289	          0.00264494	          0.00347377	          0.01456939	          0.00497379	          0.00300803	          0.06641604	          0.01044183	          0.03437137	          0.03126563	          0.06311225	          0.11572987	          0.00370471	          0.01156187	          0.00640217	          0.00450641	          0.01065229	          0.00873426	          0.00724784	          0.00367789	          0.00491684	          0.00472642	
          2.60500000	          0.00457573	          0.00348549	          0.00418985	          0.00264845	          0.00346294	          0.01450205	          0.00497816	          0.00302173	          0.06672336	          0.01048241	          0.03464863	          0.03130663	          0.06347141	          0.11576285	          0.00373356	          0.01121766	          0.00637746	          0.00446994	          0.01072213	          0.00872316	          0.00735831	          0.00367857	          0.00485815	          0.00474862	
          2.60600000	          0.00455651	          0.00348005	          0.00418453	          0.00265532	          0.00345274	          0.01443439	          0.00498297	          0.00303677	          0.06702284	          0.01052248	          0.03490179	          0.03135810	          0.06384934	          0.11573673	          0.00376466	          0.01087543	          0.00634981	          0.00443793	          0.01079573	          0.00871162	          0.00746978	          0.00368018	          0.00480455	          0.00476952	
          2.60700000	          0.00453926	          0.00347372	          0.00417674	          0.00266557	          0.00344313	          0.01436593	          0.00498820	          0.00305314	          0.06731252	          0.01056224	          0.03513147	          0.03142183	          0.06424376	          0.11564656	          0.00379760	          0.01053607	          0.00631933	          0.00441033	          0.01087285	          0.00869988	          0.00758201	          0.00368284	          0.00475574	          0.00478913	
          2.60800000	          0.00452416	          0.00346657	          0.00416634	          0.00267916	          0.00343403	          0.01429602	          0.00499384	          0.00307087	          0.06759112	          0.01060186	          0.03533858	          0.03149961	          0.06465183	          0.11548886	          0.00383203	          0.01020044	          0.00628620	          0.00438713	          0.01095335	          0.00868826	          0.00769475	          0.00368662	          0.00471145	          0.00480748	
          2.60900000	          0.00451138	          0.00345870	          0.00415332	          0.00269604	          0.00342533	          0.01422399	          0.00499985	          0.00308991	          0.06785796	          0.01064143	          0.03552400	          0.03159338	          0.06507024	          0.11526266	          0.00386765	          0.00986928	          0.00625065	          0.00436824	          0.01103711	          0.00867708	          0.00780775	          0.00369160	          0.00467147	          0.00482463	
          2.61000000	          0.00450111	          0.00345023	          0.00413781	          0.00271611	          0.00341694	          0.01414915	          0.00500617	          0.00311025	          0.06811231	          0.01068095	          0.03568847	          0.03170522	          0.06549530	          0.11496901	          0.00390410	          0.00954327	          0.00621296	          0.00435357	          0.01112400	          0.00866663	          0.00792069	          0.00369779	          0.00463565	          0.00484066	
          2.61100000	          0.00449346	          0.00344126	          0.00412003	          0.00273926	          0.00340870	          0.01407090	          0.00501270	          0.00313183	          0.06835302	          0.01072040	          0.03583263	          0.03183718	          0.06592291	          0.11460973	          0.00394106	          0.00922303	          0.00617335	          0.00434296	          0.01121374	          0.00865716	          0.00803319	          0.00370520	          0.00460389	          0.00485565	
          2.61200000	          0.00448851	          0.00343185	          0.00410028	          0.00276534	          0.00340045	          0.01398863	          0.00501934	          0.00315458	          0.06857845	          0.01075973	          0.03595711	          0.03199120	          0.06634864	          0.11418690	          0.00397828	          0.00890920	          0.00613203	          0.00433623	          0.01130592	          0.00864880	          0.00814485	          0.00371378	          0.00457619	          0.00486963	
          2.61300000	          0.00448629	          0.00342206	          0.00407881	          0.00279418	          0.00339205	          0.01390177	          0.00502597	          0.00317843	          0.06878690	          0.01079899	          0.03606260	          0.03216896	          0.06676770	          0.11370257	          0.00401552	          0.00860240	          0.00608915	          0.00433314	          0.01139998	          0.00864157	          0.00825516	          0.00372348	          0.00455261	          0.00488267	
          2.61400000	          0.00448677	          0.00341190	          0.00405587	          0.00282559	          0.00338336	          0.01380986	          0.00503246	          0.00320328	          0.06897719	          0.01083824	          0.03614970	          0.03237175	          0.06717517	          0.11315866	          0.00405263	          0.00830319	          0.00604483	          0.00433345	          0.01149521	          0.00863542	          0.00836360	          0.00373421	          0.00453317	          0.00489481	
          2.61500000	          0.00448991	          0.00340136	          0.00403169	          0.00285937	          0.00337433	          0.01371264	          0.00503868	          0.00322900	          0.06914880	          0.01087749	          0.03621890	          0.03260048	          0.06756652	          0.11255756	          0.00408947	          0.00801209	          0.00599927	          0.00433688	          0.01159072	          0.00863028	          0.00846961	          0.00374589	          0.00451788	          0.00490612	
          2.61600000	          0.00449569	          0.00339039	          0.00400641	          0.00289529	          0.00336498	          0.01361007	          0.00504445	          0.00325544	          0.06930157	          0.01091665	          0.03627069	          0.03285571	          0.06793806	          0.11190263	          0.00412592	          0.00772948	          0.00595264	          0.00434310	          0.01168550	          0.00862614	          0.00857255	          0.00375839	          0.00450667	          0.00491664	
          2.61700000	          0.00450407	          0.00337894	          0.00398020	          0.00293310	          0.00335537	          0.01350225	          0.00504962	          0.00328243	          0.06943547	          0.01095559	          0.03630563	          0.03313780	          0.06828662	          0.11119813	          0.00416188	          0.00745568	          0.00590515	          0.00435182	          0.01177847	          0.00862301	          0.00867175	          0.00377164	          0.00449943	          0.00492636	
          2.61800000	          0.00451502	          0.00336694	          0.00395315	          0.00297258	          0.00334554	          0.01338931	          0.00505405	          0.00330979	          0.06955069	          0.01099428	          0.03632441	          0.03344698	          0.06860908	          0.11044975	          0.00419725	          0.00719094	          0.00585699	          0.00436278	          0.01186880	          0.00862093	          0.00876651	          0.00378555	          0.00449603	          0.00493526	
          2.61900000	          0.00452851	          0.00335440	          0.00392534	          0.00301352	          0.00333555	          0.01327137	          0.00505767	          0.00333731	          0.06964766	          0.01103283	          0.03632770	          0.03378336	          0.06890276	          0.10966530	          0.00423189	          0.00693541	          0.00580835	          0.00437580	          0.01195614	          0.00861997	          0.00885616	          0.00380004	          0.00449630	          0.00494325	
